<svg xmlns="http://www.w3.org/2000/svg" viewBox="0 0 3879.14 1752.63"><defs><style>.cls-1{fill:#56baec;}.cls-2{fill:#f39daa;}</style></defs><g id="Layer_2" data-name="Layer 2"><g id="Layer_1-2" data-name="Layer 1"><path class="cls-1" d="M17.38,261.29l25.19,20.32a35,35,0,0,0,49.13-5.33l73.13-90.65h0c-34.75-28-80.24-17.65-108.36,17.21l-40,49.61A6.29,6.29,0,0,0,17.38,261.29Z"/><path class="cls-2" d="M169.27,188.92h0L149.82,213,144.23,220l-33.47,41.49a20.55,20.55,0,0,0,3,28.81l24.11,19.46a6.75,6.75,0,0,0,9.48-1l19.46-24.12,11.07-13.72A58.43,58.43,0,0,0,169.27,188.92Z"/><path class="cls-1" d="M107.63,487l9.93-11.74c5.89-7,4.82-17.64-2.36-23.71L71.72,414.82h0C58,431,62.84,453.07,79.56,467.2l23.8,20.1A3,3,0,0,0,107.63,487Z"/><path class="cls-2" d="M73.32,412.74h0l11.57,9.78,3.32,2.81,19.9,16.81a9.92,9.92,0,0,0,13.94-.95l9.5-11.25a3.24,3.24,0,0,0-.46-4.57l-11.57-9.78L113,410C101,399.91,83.14,401.13,73.32,412.74Z"/><path class="cls-1" d="M100.22,789.92,129.06,776a34.69,34.69,0,0,0,16.05-46.21L95,625.93h0c-39.8,19.21-49.77,64.31-30.5,104.24L91.91,787A6.23,6.23,0,0,0,100.22,789.92Z"/><path class="cls-2" d="M99.81,623.35h0L113.14,651l3.83,7.93,22.94,47.53A20.35,20.35,0,0,0,167,715.93l27.61-13.33a6.67,6.67,0,0,0,3.09-8.92l-13.33-27.63-7.58-15.71A57.85,57.85,0,0,0,99.81,623.35Z"/><path class="cls-1" d="M55.75,991.72,87.46,987a34.72,34.72,0,0,0,29.07-39.4l-17-114.16h0C55.72,840,32.79,880.1,39.35,924l9.33,62.48A6.24,6.24,0,0,0,55.75,991.72Z"/><path class="cls-2" d="M104.86,832.39h0l4.53,30.37,1.31,8.72,7.8,52.24a20.36,20.36,0,0,0,23.05,17.12l30.35-4.53a6.68,6.68,0,0,0,5.61-7.61L173,898.33l-2.58-17.27A57.9,57.9,0,0,0,104.86,832.39Z"/><path class="cls-1" d="M65.34,1206.16l28,1.14a30.42,30.42,0,0,0,31.43-29.18l4.12-101.19h0c-38.65-1.57-64.93,29.25-66.51,68.16l-2.25,55.38A5.45,5.45,0,0,0,65.34,1206.16Z"/><path class="cls-2" d="M133.68,1076.93h0l-1.09,26.92-.32,7.73-1.88,46.31a17.82,17.82,0,0,0,17,18.54l26.8,1.1a5.86,5.86,0,0,0,6.07-5.64l1.09-26.92.63-15.31C183.09,1101.78,161.37,1078.05,133.68,1076.93Z"/><path class="cls-1" d="M7.09,1434.13l32.26-.38a34.93,34.93,0,0,0,34.35-35.29l-1.38-116.09h0c-44.5.53-72.84,37.4-72.31,82l.75,63.53A6.26,6.26,0,0,0,7.09,1434.13Z"/><path class="cls-2" d="M77.82,1282.08h0l.37,30.89.1,8.86.64,53.13a20.47,20.47,0,0,0,20.63,20.2l30.87-.36a6.72,6.72,0,0,0,6.63-6.81l-.36-30.89-.21-17.56A58.24,58.24,0,0,0,77.82,1282.08Z"/><path class="cls-1" d="M98.6,1623.32l7.12-2.39c4.22-1.41,6.41-6.33,4.87-10.93l-9.33-27.82h0c-9.82,3.29-13.24,14.18-9.65,24.87l5.1,15.23A1.53,1.53,0,0,0,98.6,1623.32Z"/><path class="cls-2" d="M102.46,1581.72h0l2.48,7.4.71,2.13,4.27,12.73a5,5,0,0,0,6.15,3.39l6.81-2.29a1.63,1.63,0,0,0,.94-2.11l-2.48-7.4-1.41-4.21C117.36,1583.7,109.5,1579.36,102.46,1581.72Z"/><path class="cls-1" d="M406.7,1457.13l-25-23.1a36.81,36.81,0,0,0-51.86,2.07l-83,89.73h0c34.45,31.87,82.84,24.24,114.77-10.26l45.43-49.11A6.61,6.61,0,0,0,406.7,1457.13Z"/><path class="cls-2" d="M242.44,1522.07h0l22.09-23.88,6.34-6.85,38-41.07a21.59,21.59,0,0,0-1.16-30.41l-23.9-22.1a7.07,7.07,0,0,0-10,.39L251.71,1422l-12.56,13.58A61.36,61.36,0,0,0,242.44,1522.07Z"/><path class="cls-1" d="M380.34,1252.85l-7.26-17.36a20.58,20.58,0,0,0-27-10.72l-63.65,26.63h0c10,24,36.53,31.07,61,20.83l34.83-14.57A3.69,3.69,0,0,0,380.34,1252.85Z"/><path class="cls-2" d="M281.11,1248.49h0l16.93-7.08,4.87-2L332,1227.19a12.06,12.06,0,0,0,6.62-15.67l-6.95-16.62a4,4,0,0,0-5.2-2.07l-16.94,7.09-9.63,4C282.4,1211.28,273.93,1231.33,281.11,1248.49Z"/><path class="cls-1" d="M376.26,1007.53l-17.68-9.95a22.14,22.14,0,0,0-30,8.68l-36.36,64.59h0c24.39,13.73,51.6,2.29,65.58-22.55l19.9-35.35A4,4,0,0,0,376.26,1007.53Z"/><path class="cls-2" d="M289.16,1069.28h0l9.67-17.18,2.78-4.94,16.64-29.55a13,13,0,0,0-4.77-17.67l-16.92-9.53a4.26,4.26,0,0,0-5.78,1.68l-9.68,17.18-5.5,9.77C265.58,1036.84,271.68,1059.45,289.16,1069.28Z"/><path class="cls-1" d="M350.44,754.23l-17.38,2.94a19.3,19.3,0,0,0-15.49,22.37l10.8,63.89h0c24-4,36.09-26.78,31.93-51.35l-5.91-35A3.46,3.46,0,0,0,350.44,754.23Z"/><path class="cls-2" d="M325.43,844.06h0l-2.88-17-.82-4.88-5-29.24a11.31,11.31,0,0,0-12.89-9.4l-16.63,2.81a3.72,3.72,0,0,0-3,4.32l2.88,17,1.63,9.67C291.76,834.94,308.25,847,325.43,844.06Z"/><path class="cls-1" d="M360.89,576.37l-5.46-1.82c-3.24-1.08-6.89,1-8.1,4.65l-7.33,22h0c7.54,2.51,14.72-2.79,17.54-11.26l4-12.05A1.2,1.2,0,0,0,360.89,576.37Z"/><path class="cls-2" d="M339.05,601h0l2-5.86.56-1.68,3.35-10.08a3.9,3.9,0,0,0-2.16-5l-5.23-1.74a1.28,1.28,0,0,0-1.57.9L334,583.33l-1.11,3.33C330.88,592.72,333.65,599.16,339.05,601Z"/><path class="cls-1" d="M379.52,347.16l-19.15-16a27.09,27.09,0,0,0-38,3.67L264.52,404.3h0c26.41,22,61.69,14.39,83.93-12.3l31.65-38A4.85,4.85,0,0,0,379.52,347.16Z"/><path class="cls-2" d="M261.14,401.72h0l15.39-18.47,4.42-5.31,26.47-31.77a15.88,15.88,0,0,0-1.92-22.31L287.18,308.6a5.21,5.21,0,0,0-7.34.7l-15.38,18.48-8.75,10.5C239.77,357.4,242.22,386,261.14,401.72Z"/><path class="cls-1" d="M435.83,78.8,415,66.4a26.34,26.34,0,0,0-35.94,9.32l-45,75.48h0c28.69,17.1,61.4,4.42,78.7-24.61l24.63-41.31A4.71,4.71,0,0,0,435.83,78.8Z"/><path class="cls-2" d="M330.47,149.23h0l12-20.08,3.44-5.77,20.59-34.54a15.44,15.44,0,0,0-5.22-21.13l-19.9-11.87a5.06,5.06,0,0,0-6.93,1.8l-12,20.08-6.8,11.42C303.24,109.94,309.91,137,330.47,149.23Z"/><path class="cls-1" d="M590.59,309.54l20.1-11.14a25,25,0,0,0,9.5-34l-40.51-73.1h0c-27.73,15.37-32.92,48.3-17.34,76.42l22.16,40A4.5,4.5,0,0,0,590.59,309.54Z"/><path class="cls-2" d="M583,189.29h0l10.78,19.45,3.1,5.58,18.53,33.45a14.66,14.66,0,0,0,19.84,5.84L654.52,243a4.82,4.82,0,0,0,1.84-6.55L645.58,217l-6.13-11.06C628.29,185.75,602.91,178.28,583,189.29Z"/><path class="cls-1" d="M552,544l32.37-3.86A35.3,35.3,0,0,0,615.07,501L601.2,384.54h0c-44.67,5.32-69.19,45.41-63.85,90.2l7.59,63.74A6.33,6.33,0,0,0,552,544Z"/><path class="cls-2" d="M606.69,383.65h0l3.69,31,1.06,8.89,6.35,53.3a20.71,20.71,0,0,0,22.91,18.09l31-3.69a6.8,6.8,0,0,0,5.93-7.56l-3.69-31-2.1-17.62A58.87,58.87,0,0,0,606.69,383.65Z"/><path class="cls-1" d="M565.29,727.48l11.35,3.41c6.73,2,14-2.09,16.08-9.14l12.82-42.68h0c-15.66-4.7-29.82,5.68-34.74,22.09l-7,23.35A2.35,2.35,0,0,0,565.29,727.48Z"/><path class="cls-2" d="M607.5,679.57h0l-3.41,11.36-1,3.26-5.86,19.52a7.7,7.7,0,0,0,4.91,9.68L613,726.65a2.53,2.53,0,0,0,3.1-1.77l3.41-11.35,1.94-6.46C625,695.32,618.72,682.94,607.5,679.57Z"/><path class="cls-1" d="M592.09,966.78,608,958.94a19.45,19.45,0,0,0,8.52-26.06l-28.83-58.55h0c-22,10.82-27.13,36.24-16,58.76l15.77,32A3.5,3.5,0,0,0,592.09,966.78Z"/><path class="cls-2" d="M590.37,872.87h0L598,888.45l2.2,4.48,13.2,26.79a11.39,11.39,0,0,0,15.15,5.36l15.25-7.51a3.74,3.74,0,0,0,1.64-5L637.81,897l-4.36-8.85C625.5,872,606.12,865.12,590.37,872.87Z"/><path class="cls-1" d="M489.86,1122.65l19.25,23.69a33.08,33.08,0,0,0,46.41,4.68l85.37-69.39h0c-26.56-32.68-70.6-32-103.43-5.3l-46.72,38A5.93,5.93,0,0,0,489.86,1122.65Z"/><path class="cls-2" d="M644.34,1085.54h0L621.63,1104l-6.52,5.3L576,1141.06a19.38,19.38,0,0,0-2.87,27.2l18.42,22.67a6.37,6.37,0,0,0,9,.9l22.72-18.46,12.91-10.5C659.7,1143.75,663.37,1109,644.34,1085.54Z"/><path class="cls-1" d="M528.08,1389.66,552,1403.31a29.85,29.85,0,0,0,40.57-11.22l49.36-86.32h0c-32.95-18.83-69.78-3.86-88.76,29.34l-27,47.24A5.34,5.34,0,0,0,528.08,1389.66Z"/><path class="cls-2" d="M646.05,1307.93h0l-13.13,23-3.77,6.6L606.57,1377a17.5,17.5,0,0,0,6.39,23.84l22.86,13.06a5.75,5.75,0,0,0,7.83-2.16l13.13-23,7.47-13.06C677.84,1351.93,669.66,1321.43,646.05,1307.93Z"/><path class="cls-1" d="M606.08,1622.13l7.12-1.93c4.23-1.15,6.66-5.85,5.41-10.46l-7.56-27.88h0c-9.83,2.67-13.81,13.16-10.9,23.88l4.14,15.26A1.5,1.5,0,0,0,606.08,1622.13Z"/><path class="cls-2" d="M612.25,1581.48h0l2,7.42.58,2.13,3.46,12.75a4.9,4.9,0,0,0,5.83,3.69l6.82-1.85a1.61,1.61,0,0,0,1-2l-2-7.41-1.14-4.22C626.75,1584.29,619.29,1579.57,612.25,1581.48Z"/><path class="cls-1" d="M875.52,1719.94l-9.2-13.72c-5.45-8.14-16.76-10.21-25.12-4.6l-50.59,33.93h0c12.69,18.93,36.81,20.49,56.27,7.45l27.69-18.57A3.24,3.24,0,0,0,875.52,1719.94Z"/><path class="cls-2" d="M788.94,1733.27h0l13.46-9,3.86-2.59,23.16-15.53a10.62,10.62,0,0,0,3.1-14.65l-8.81-13.13a3.47,3.47,0,0,0-4.84-.89l-13.47,9-7.65,5.13C783.81,1701,779.84,1719.71,788.94,1733.27Z"/><path class="cls-1" d="M884.8,1402.62l-33.2-2.08a36,36,0,0,0-38.05,33.64l-7.48,119.41h0c45.81,2.87,77.79-32.84,80.67-78.76l4.09-65.35A6.46,6.46,0,0,0,884.8,1402.62Z"/><path class="cls-2" d="M800.39,1553.46h0l2-31.77.57-9.12,3.43-54.64a21.12,21.12,0,0,0-19.68-22.35l-31.78-2a6.93,6.93,0,0,0-7.34,6.49l-2,31.78-1.13,18.06A60,60,0,0,0,800.39,1553.46Z"/><path class="cls-1" d="M849.77,1185.39l-19.59,2a21.5,21.5,0,0,0-18.92,23.69l7.29,71.66h0c27-2.75,42.21-27.08,39.4-54.64l-4-39.21A3.86,3.86,0,0,0,849.77,1185.39Z"/><path class="cls-2" d="M815.22,1283.21h0l-1.94-19.07-.55-5.47-3.34-32.8a12.61,12.61,0,0,0-13.67-11.36L777,1216.42a4.13,4.13,0,0,0-3.65,4.57l1.94,19.06,1.11,10.84C778.38,1270.64,795.86,1285.18,815.22,1283.21Z"/><path class="cls-1" d="M862.31,979.08l-13.24,8.66c-7.86,5.14-10,16-4.66,24.06l32,49h0c18.28-12,20-35.09,7.71-53.92L866.61,980A3.11,3.11,0,0,0,862.31,979.08Z"/><path class="cls-2" d="M874.24,1062.34h0l-8.52-13-2.45-3.74-14.66-22.41a10.19,10.19,0,0,0-14-3.15l-12.68,8.3a3.33,3.33,0,0,0-.9,4.64l8.52,13,4.84,7.4C843.21,1066.87,861.14,1070.9,874.24,1062.34Z"/><path class="cls-1" d="M833.19,788.63l-9.06,2c-5.37,1.18-8.74,6.84-7.48,12.57l7.62,34.7h0c12.5-2.74,18.19-15.44,15.26-28.78l-4.17-19A1.86,1.86,0,0,0,833.19,788.63Z"/><path class="cls-2" d="M822.74,838.3h0l-2-9.23-.58-2.65-3.49-15.88a6.07,6.07,0,0,0-7.06-4.86l-8.68,1.9a2,2,0,0,0-1.44,2.43l2,9.23,1.15,5.25C804.74,834.05,813.79,840.27,822.74,838.3Z"/><path class="cls-1" d="M799.34,548.42l-7,15a18.18,18.18,0,0,0,9.16,23.94L857,613.07h0c9.6-20.76-1.64-42.26-23-52.13l-30.36-14.05A3.26,3.26,0,0,0,799.34,548.42Z"/><path class="cls-2" d="M855.94,615.69h0l-14.76-6.83-4.24-2-25.39-11.75a10.65,10.65,0,0,0-14.17,5l-6.67,14.4a3.5,3.5,0,0,0,1.77,4.62L807.24,626l8.39,3.88C830.92,636.94,849.06,630.56,855.94,615.69Z"/><path class="cls-1" d="M885.44,323.32,862.63,308a29.82,29.82,0,0,0-41.24,8.26L766,398.73h0c31.48,21.14,69.26,8.86,90.56-22.85l30.31-45.13A5.36,5.36,0,0,0,885.44,323.32Z"/><path class="cls-2" d="M762,396.28h0l14.74-21.94L781,368l25.35-37.74a17.5,17.5,0,0,0-4.67-24.22l-21.83-14.66a5.74,5.74,0,0,0-8,1.59L757.12,315l-8.37,12.47C733.49,350.16,739.45,381.14,762,396.28Z"/><path class="cls-1" d="M858.71,118.37l-5.11,2.13c-3,1.27-4.34,5.1-2.91,8.52l8.64,20.68h0c7-2.94,8.88-11.35,5.56-19.31l-4.72-11.32A1.15,1.15,0,0,0,858.71,118.37Z"/><path class="cls-2" d="M858.47,150.11h0l-2.3-5.51-.66-1.58-4-9.46a3.75,3.75,0,0,0-4.75-2.3l-4.89,2a1.23,1.23,0,0,0-.56,1.64l2.3,5.51,1.3,3.13C847.34,149.28,853.42,152.21,858.47,150.11Z"/><path class="cls-1" d="M1112.86,318.27l23.1-15.1a30,30,0,0,0,8.52-41.38l-54.58-83.53h0c-31.89,20.83-35.33,60.59-14.34,92.71l29.87,45.71A5.36,5.36,0,0,0,1112.86,318.27Z"/><path class="cls-2" d="M1093.74,175.52h0l14.52,22.23,4.17,6.38,25,38.23a17.58,17.58,0,0,0,24.23,5.17l22.12-14.45a5.77,5.77,0,0,0,1.64-8l-14.52-22.23-8.26-12.63C1147.57,167.21,1116.58,160.6,1093.74,175.52Z"/><path class="cls-1" d="M1005.94,452.39l11.93,21.85a27.07,27.07,0,0,0,36.68,10.56l79.26-43.27h0c-16.47-30.15-52-36-82.53-19.39l-43.37,23.68A4.85,4.85,0,0,0,1005.94,452.39Z"/><path class="cls-2" d="M1136,445.17h0l-21.09,11.52-6.06,3.3-36.26,19.8a15.88,15.88,0,0,0-6.42,21.44l11.42,20.92a5.21,5.21,0,0,0,7.07,2l21.09-11.52,12-6.54C1139.58,494.21,1147.79,466.78,1136,445.17Z"/><path class="cls-1" d="M1119,780.66,1142.88,756a37.14,37.14,0,0,0-.91-52.36l-88.66-85.73h0c-32.92,34-26.31,83,7.78,116l48.52,46.92A6.66,6.66,0,0,0,1119,780.66Z"/><path class="cls-2" d="M1057.2,613.52h0l23.59,22.82,6.78,6.54,40.57,39.24a21.78,21.78,0,0,0,30.7-.5L1181.67,658a7.14,7.14,0,0,0-.17-10.11l-23.59-22.81-13.41-13A61.92,61.92,0,0,0,1057.2,613.52Z"/><path class="cls-1" d="M1069.81,933.44l9.24,2.82c5.48,1.67,11.41-1.74,13.19-7.56L1103,893.43h0c-12.74-3.88-24.36,4.7-28.5,18.26L1068.6,931A1.94,1.94,0,0,0,1069.81,933.44Z"/><path class="cls-2" d="M1104.58,893.84h0l-2.86,9.38-.82,2.7L1096,922.06a6.33,6.33,0,0,0,4,8l8.84,2.69a2.08,2.08,0,0,0,2.55-1.46l2.86-9.38,1.62-5.34C1118.76,906.85,1113.71,896.62,1104.58,893.84Z"/><path class="cls-1" d="M1084.18,1149.15l2.45,5.48c1.45,3.25,5.61,4.58,9.23,2.95l22-9.82h0c-3.38-7.56-12.47-9.35-20.91-5.57l-12,5.37A1.23,1.23,0,0,0,1084.18,1149.15Z"/><path class="cls-2" d="M1118.27,1148.67h0l-5.84,2.62-1.67.75-10,4.49a4,4,0,0,0-2.31,5.2l2.34,5.24a1.33,1.33,0,0,0,1.78.57l5.84-2.62,3.32-1.48C1117.73,1160.73,1120.7,1154.09,1118.27,1148.67Z"/><path class="cls-1" d="M1038.18,1347.48l4.75,8.16c2.81,4.83,9.33,6.33,14.49,3.33l31.18-18.16h0c-6.55-11.25-20.6-12.81-32.59-5.83l-17.07,9.94A1.89,1.89,0,0,0,1038.18,1347.48Z"/><path class="cls-2" d="M1089.47,1342.16h0l-8.29,4.83-2.39,1.39-14.27,8.31a6.2,6.2,0,0,0-2.49,8.36l4.54,7.8a2,2,0,0,0,2.8.64l8.3-4.83,4.72-2.75C1091,1360.91,1094.17,1350.22,1089.47,1342.16Z"/><path class="cls-1" d="M1015.09,1661.05l34.64-2a37.54,37.54,0,0,0,35.15-39.58L1077.59,1495h0c-47.79,2.8-76.4,43.77-73.6,91.62l4,68.1A6.73,6.73,0,0,0,1015.09,1661.05Z"/><path class="cls-2" d="M1083.49,1494.42h0l1.94,33.11.55,9.5,3.34,57a22,22,0,0,0,23.18,20.64l33.15-1.94a7.24,7.24,0,0,0,6.79-7.64l-1.94-33.11-1.1-18.83A62.58,62.58,0,0,0,1083.49,1494.42Z"/><path class="cls-1" d="M1319.51,1410.77l-17.86,18.34a27.82,27.82,0,0,0,.73,39.22l66.48,64.7h0c24.64-25.31,19.65-62-5.91-86.92l-36.39-35.41A5,5,0,0,0,1319.51,1410.77Z"/><path class="cls-2" d="M1366,1536.29h0l-17.69-17.22-5.08-4.94-30.43-29.6a16.31,16.31,0,0,0-23,.2l-17.09,17.56a5.36,5.36,0,0,0,.14,7.57l17.69,17.21,10.06,9.79C1318.87,1554.68,1348.29,1554.43,1366,1536.29Z"/><path class="cls-1" d="M1325,1199.53l-8,13.45c-4.77,8-2,18.51,6.27,23.42l49.7,29.75h0c11.1-18.55,2.64-39.9-16.47-51.34l-27.21-16.27A3.08,3.08,0,0,0,1325,1199.53Z"/><path class="cls-2" d="M1371.66,1268.5h0l-13.23-7.91-3.79-2.28-22.75-13.61a10.09,10.09,0,0,0-13.84,3.26l-7.7,12.86a3.32,3.32,0,0,0,1.21,4.53l13.22,7.91,7.52,4.5C1346,1286,1363.71,1281.79,1371.66,1268.5Z"/><path class="cls-1" d="M1376.6,927.4,1346.82,938a34.24,34.24,0,0,0-20.64,43.64l38.14,107.24h0c41.09-14.62,55.66-57.81,41-99l-20.87-58.69A6.14,6.14,0,0,0,1376.6,927.4Z"/><path class="cls-2" d="M1359.32,1090.89h0l-10.15-28.54-2.91-8.19-17.46-49.07a20.08,20.08,0,0,0-25.55-12.2l-28.5,10.14a6.58,6.58,0,0,0-4,8.42l10.15,28.54,5.77,16.22A57.08,57.08,0,0,0,1359.32,1090.89Z"/><path class="cls-1" d="M1390.45,773.23l-17.55,2.51a19.4,19.4,0,0,0-16.14,22.09l9.23,64.5h0c24.22-3.47,37-26,33.42-50.81l-5.06-35.29A3.47,3.47,0,0,0,1390.45,773.23Z"/><path class="cls-2" d="M1363,862.88h0l-2.46-17.16-.7-4.92-4.23-29.52a11.38,11.38,0,0,0-12.72-9.78l-16.8,2.41a3.73,3.73,0,0,0-3.11,4.26l2.46,17.16,1.39,9.76C1329.4,852.86,1345.67,865.37,1363,862.88Z"/><path class="cls-1" d="M1380,561.92,1365.06,543a26.24,26.24,0,0,0-36.78-4.13l-68.81,54.25h0c20.62,26.15,55.6,26,82.06,5.13l37.65-29.69A4.72,4.72,0,0,0,1380,561.92Z"/><path class="cls-2" d="M1256.79,590h0l18.31-14.43,5.25-4.15,31.49-24.82a15.4,15.4,0,0,0,2.67-21.54l-14.3-18.14a5.06,5.06,0,0,0-7.1-.8l-18.31,14.44-10.4,8.2C1245.44,543.67,1242,571.23,1256.79,590Z"/><path class="cls-1" d="M1359.42,262.09l-33.5,4.3a36.56,36.56,0,0,0-31.47,40.84l15.49,120.44h0c46.23-5.94,71.25-47.68,65.29-94l-8.47-65.91A6.55,6.55,0,0,0,1359.42,262.09Z"/><path class="cls-2" d="M1304.26,428.64h0l-4.12-32.05L1299,387.4l-7.09-55.12a21.44,21.44,0,0,0-23.9-18.5l-32.07,4.13a7,7,0,0,0-6.08,7.88l4.13,32,2.34,18.22A61,61,0,0,0,1304.26,428.64Z"/><path class="cls-1" d="M1330.82,106.57l-4.6-1.38c-2.72-.82-5.72,1.08-6.66,4.22l-5.69,19h0c6.34,1.9,12.23-2.85,14.42-10.15l3.11-10.4A1,1,0,0,0,1330.82,106.57Z"/><path class="cls-2" d="M1313.07,128.22h0l1.52-5.06.43-1.45,2.61-8.69a3.3,3.3,0,0,0-1.91-4.22l-4.4-1.32a1.08,1.08,0,0,0-1.28.82l-1.52,5-.86,2.87C1306.09,121.46,1308.53,126.86,1313.07,128.22Z"/><path class="cls-1" d="M1574.41,281.9l19.65-3.28a21.73,21.73,0,0,0,17.57-25.12l-12-71.85h0c-27.1,4.52-40.86,30-36.25,57.68l6.56,39.32A3.9,3.9,0,0,0,1574.41,281.9Z"/><path class="cls-2" d="M1603,181h0l3.19,19.12.92,5.49,5.49,32.88A12.75,12.75,0,0,0,1627.1,249l18.8-3.14a4.18,4.18,0,0,0,3.4-4.85l-3.19-19.11-1.82-10.87C1641,191.25,1622.4,177.71,1603,181Z"/><path class="cls-1" d="M1598.75,482.79l5.42,1.71c3.21,1,6.77-1.11,7.91-4.72l6.92-21.85h0c-7.47-2.36-14.48,3-17.14,11.39l-3.78,11.95A1.18,1.18,0,0,0,1598.75,482.79Z"/><path class="cls-2" d="M1619.93,458.18h0l-1.84,5.82-.53,1.67-3.16,10a3.85,3.85,0,0,0,2.2,4.94l5.18,1.64a1.27,1.27,0,0,0,1.53-.91l1.84-5.82,1-3.3C1628.1,466.19,1625.28,459.88,1619.93,458.18Z"/><path class="cls-1" d="M1568.85,751.42l17.3-18.67a27.65,27.65,0,0,0-1.67-39l-67.66-62.73h0c-23.88,25.76-18,62.15,8,86.27l37,34.33A5,5,0,0,0,1568.85,751.42Z"/><path class="cls-2" d="M1519.64,627.74h0l18,16.69,5.16,4.79,31,28.71a16.23,16.23,0,0,0,22.86-.75l16.57-17.87a5.33,5.33,0,0,0-.33-7.53l-18-16.69-10.23-9.49C1566,608.32,1536.75,609.29,1519.64,627.74Z"/><path class="cls-1" d="M1546.23,910.38l3.29,4.12c2,2.44,5.83,2.63,8.6.41l16.81-13.43h0c-4.54-5.69-12.77-5.14-19.23,0l-9.2,7.35A1.11,1.11,0,0,0,1546.23,910.38Z"/><path class="cls-2" d="M1575.53,902.16h0l-4.48,3.57-1.28,1-7.69,6.15a3.6,3.6,0,0,0-.88,5l3.15,4a1.18,1.18,0,0,0,1.66.08l4.48-3.58,2.54-2C1577.66,912.59,1578.78,906.23,1575.53,902.16Z"/><path class="cls-1" d="M1562.83,1201.1l23,4.65a25.54,25.54,0,0,0,29.89-20.11l16.9-83.63h0c-31.75-6.42-57.6,15.74-64.1,47.9l-9.25,45.77A4.58,4.58,0,0,0,1562.83,1201.1Z"/><path class="cls-2" d="M1636.59,1102.64h0l-4.5,22.25-1.29,6.39-7.73,38.27a15,15,0,0,0,11.57,17.67l22,4.45a4.91,4.91,0,0,0,5.77-3.88l4.5-22.25,2.56-12.65C1674.14,1129.85,1659.34,1107.23,1636.59,1102.64Z"/><path class="cls-1" d="M1621.68,1417.5l15.63-17.2a25.29,25.29,0,0,0-1.93-35.61l-62.52-56.81h0c-21.56,23.73-15.84,56.95,8.2,78.79l34.22,31.09A4.52,4.52,0,0,0,1621.68,1417.5Z"/><path class="cls-2" d="M1575.4,1304.84h0L1592,1320l4.77,4.34,28.61,26a14.83,14.83,0,0,0,20.9-.86l15-16.46a4.86,4.86,0,0,0-.37-6.87L1644.27,1311l-9.46-8.59C1617.59,1286.73,1590.85,1287.84,1575.4,1304.84Z"/><path class="cls-1" d="M1551.85,1596.45l10.23,11.61c6.07,6.88,16.84,7.39,23.94,1.13l43-37.88h0c-14.12-16-36.77-14.45-53.28.11l-23.51,20.73A3,3,0,0,0,1551.85,1596.45Z"/><path class="cls-2" d="M1630.8,1573.22h0l-11.43,10.08-3.28,2.89-19.65,17.33a10,10,0,0,0-1.1,14l9.8,11.11a3.27,3.27,0,0,0,4.62.22l11.43-10.08,6.49-5.73C1639.52,1602.62,1640.92,1584.69,1630.8,1573.22Z"/><path class="cls-1" d="M1861.76,1451l-21.65-11.3a26.56,26.56,0,0,0-35.66,11.42l-41,78.56h0c29.87,15.59,62.08,1,77.85-29.25l22.45-43A4.77,4.77,0,0,0,1861.76,1451Z"/><path class="cls-2" d="M1759.67,1527.91h0l10.91-20.9,3.13-6,18.77-36a15.57,15.57,0,0,0-6.46-21l-20.72-10.82a5.11,5.11,0,0,0-6.88,2.2l-10.91,20.91-6.21,11.88C1730,1489.89,1738.27,1516.74,1759.67,1527.91Z"/><path class="cls-1" d="M1768.39,1168l-13.64,24.57a30.48,30.48,0,0,0,12,41.3l88.75,49.3h0c18.83-33.89,3.09-71.32-31-90.28l-48.57-27A5.48,5.48,0,0,0,1768.39,1168Z"/><path class="cls-2" d="M1853.3,1287.46h0l-23.62-13.12-6.78-3.77L1782.29,1248a17.87,17.87,0,0,0-24.26,6.84L1745,1278.36a5.89,5.89,0,0,0,2.31,8l23.62,13.12,13.42,7.45C1808.76,1320.5,1839.81,1311.74,1853.3,1287.46Z"/><path class="cls-1" d="M1897.86,958.16l-33.35-.35a36.11,36.11,0,0,0-36.33,35.67L1827,1113.42h0c46,.47,76.16-37,76.64-83.08l.67-65.64A6.46,6.46,0,0,0,1897.86,958.16Z"/><path class="cls-2" d="M1821.26,1113.6h0l.33-31.92.09-9.16.56-54.88a21.17,21.17,0,0,0-20.86-21.35l-31.93-.33a7,7,0,0,0-7,6.89l-.33,31.91-.18,18.14A60.19,60.19,0,0,0,1821.26,1113.6Z"/><path class="cls-1" d="M1820.47,770l-14,9c-8.31,5.35-10.62,16.71-5.13,25.25l33.23,51.66h0c19.34-12.43,21.39-36.73,8.61-56.6L1825,771.05A3.28,3.28,0,0,0,1820.47,770Z"/><path class="cls-2" d="M1832.24,857.57h0l-8.84-13.75-2.54-3.94-15.21-23.65a10.72,10.72,0,0,0-14.71-3.4l-13.42,8.63a3.52,3.52,0,0,0-1,4.87l8.84,13.75,5,7.81C1799.56,862.13,1818.38,866.48,1832.24,857.57Z"/><path class="cls-1" d="M1819.09,552.27l-7.92,6.19c-4.71,3.67-5.37,10.75-1.48,15.74l23.54,30.17h0c10.94-8.54,10.61-23.55,1.56-35.15L1821.9,552.7A2,2,0,0,0,1819.09,552.27Z"/><path class="cls-2" d="M1831.93,605.48h0l-6.27-8-1.8-2.3-10.77-13.81a6.58,6.58,0,0,0-9.16-1.4l-7.59,5.92a2.15,2.15,0,0,0-.28,3l6.26,8,3.56,4.57C1812.37,609.8,1824.09,611.6,1831.93,605.48Z"/><path class="cls-1" d="M1819,250.8l-20.47,26.38a36.14,36.14,0,0,0,6.43,50.55l94.86,73.61h0c28.25-36.4,16.66-83.09-19.81-111.4l-51.92-40.28A6.47,6.47,0,0,0,1819,250.8Z"/><path class="cls-2" d="M1896.54,406h0l-25.25-19.58-7.24-5.62-43.41-33.69A21.19,21.19,0,0,0,1791,350.8l-19.59,25.25a7,7,0,0,0,1.24,9.76l25.24,19.58,14.35,11.14A60.26,60.26,0,0,0,1896.54,406Z"/><path class="cls-1" d="M1795.4,64.11l-11,16.15a21.32,21.32,0,0,0,5.93,29.46l59.1,40.11h0c15.12-22.27,6.31-49.3-16.42-64.73l-32.34-21.95A3.81,3.81,0,0,0,1795.4,64.11Z"/><path class="cls-2" d="M1847.71,152.66h0L1832,142l-4.51-3.06-27-18.36a12.49,12.49,0,0,0-17.34,3.14l-10.49,15.45a4.11,4.11,0,0,0,1.15,5.69l15.72,10.67,8.94,6.07C1814.69,172.64,1836.88,168.62,1847.71,152.66Z"/><path class="cls-1" d="M2030.26,240.05l5.36.58c3.17.35,6.09-2.32,6.49-5.91l2.37-21.78h0c-7.4-.8-12.92,5.53-13.83,13.9l-1.3,11.92A1.13,1.13,0,0,0,2030.26,240.05Z"/><path class="cls-2" d="M2045.39,213h0l-.63,5.79-.18,1.66-1.08,10a3.65,3.65,0,0,0,3,4.2l5.12.56a1.2,1.2,0,0,0,1.26-1.14l.63-5.79.36-3.3C2054.49,219,2050.69,213.57,2045.39,213Z"/><path class="cls-1" d="M2041.14,502.45l20-1.87a22,22,0,0,0,19.56-24l-6.81-73.26h0c-27.65,2.57-43.39,27.28-40.77,55.46l3.72,40.09A4,4,0,0,0,2041.14,502.45Z"/><path class="cls-2" d="M2077.34,402.84h0l1.81,19.49.52,5.6,3.11,33.53a12.9,12.9,0,0,0,13.87,11.73l19.19-1.79a4.22,4.22,0,0,0,3.77-4.63l-1.81-19.5-1-11.08C2114.9,416,2097.15,401,2077.34,402.84Z"/><path class="cls-1" d="M2021.9,685.3l4.7,4.65c2.79,2.76,7.56,2.51,10.61-.57l18.45-18.61h0c-6.49-6.43-16.48-4.73-23.58,2.43L2022,683.39A1.36,1.36,0,0,0,2021.9,685.3Z"/><path class="cls-2" d="M2056.5,671.52h0l-4.91,5-1.41,1.42-8.44,8.52a4.42,4.42,0,0,0-.28,6.22l4.5,4.46a1.45,1.45,0,0,0,2-.11l4.91-5,2.79-2.81C2060.78,684.09,2061.14,676.13,2056.5,671.52Z"/><path class="cls-1" d="M1978.75,1000l33.63,4.41a36.7,36.7,0,0,0,41-31.57L2069.23,852h0c-46.4-6.08-81.39,28-87.48,74.51l-8.66,66.15A6.58,6.58,0,0,0,1978.75,1000Z"/><path class="cls-2" d="M2075,852.5h0l-4.21,32.16-1.21,9.23-7.24,55.32a21.51,21.51,0,0,0,18.46,24.08L2113,977.5a7.07,7.07,0,0,0,7.92-6.09l4.21-32.16L2127.5,921A61.17,61.17,0,0,0,2075,852.5Z"/><path class="cls-1" d="M2016.72,1202.63l24.19-5.74a27,27,0,0,0,19.84-32.54L2040,1076.61h0c-33.38,7.91-48.43,40.63-40.43,74.37l11.38,48A4.84,4.84,0,0,0,2016.72,1202.63Z"/><path class="cls-2" d="M2044,1075.46h0l5.54,23.34,1.58,6.71,9.52,40.15a15.84,15.84,0,0,0,19,11.83l23.15-5.48a5.21,5.21,0,0,0,3.83-6.28l-5.53-23.35-3.15-13.27C2092.21,1084.93,2068,1069.79,2044,1075.46Z"/><path class="cls-1" d="M2024.2,1418.37l17-7.9a20.49,20.49,0,0,0,9.64-27.25l-28.94-62.37h0c-23.48,10.89-29.55,37.56-18.42,61.54l15.84,34.14A3.69,3.69,0,0,0,2024.2,1418.37Z"/><path class="cls-2" d="M2024.75,1319.38h0l7.7,16.59,2.21,4.77,13.25,28.54a12,12,0,0,0,15.85,6l16.29-7.56a4,4,0,0,0,1.86-5.26l-7.7-16.59-4.38-9.44C2061.85,1319.25,2041.57,1311.57,2024.75,1319.38Z"/><path class="cls-1" d="M1968,1621.38l27.55,21a37.46,37.46,0,0,0,52.34-7.12l75.37-99h0c-38-28.94-86.29-16.52-115.28,21.54L1966.72,1612A6.71,6.71,0,0,0,1968,1621.38Z"/><path class="cls-2" d="M2128.09,1539.66h0L2108,1566l-5.75,7.56-34.49,45.29a22,22,0,0,0,4.13,30.7l26.37,20.08a7.21,7.21,0,0,0,10.1-1.38l20.05-26.33,11.41-15A62.46,62.46,0,0,0,2128.09,1539.66Z"/><path class="cls-1" d="M2330.34,1692.74l-7.24,5c-4.29,3-5.19,9.17-2,13.77l19.28,27.84h0c10-6.91,10.38-20.14,3-30.84l-10.55-15.24A1.76,1.76,0,0,0,2330.34,1692.74Z"/><path class="cls-2" d="M2339.18,1740.26h0l-5.13-7.4-1.48-2.13-8.82-12.74a5.79,5.79,0,0,0-8-1.74l-6.92,4.79a1.9,1.9,0,0,0-.39,2.66l5.13,7.41,2.91,4.21C2321.82,1743,2332,1745.22,2339.18,1740.26Z"/><path class="cls-1" d="M2282,1432.76l-7.52,8.5c-4.46,5-3.77,13,1.52,17.68l32,28.37h0c10.37-11.73,7-28.23-5.32-39.14l-17.54-15.52A2.26,2.26,0,0,0,2282,1432.76Z"/><path class="cls-2" d="M2306.84,1488.81h0l-8.53-7.54-2.45-2.17-14.66-13a7.39,7.39,0,0,0-10.4.37l-7.2,8.14a2.42,2.42,0,0,0,.29,3.41l8.53,7.55,4.85,4.29C2286.09,1497.69,2299.4,1497.21,2306.84,1488.81Z"/><path class="cls-1" d="M2324.82,1245.16l-13.88-5.14c-8.22-3-17.53,1.42-20.67,9.93l-19.05,51.46h0c19.14,7.08,37.51-4.53,44.83-24.31l10.43-28.17A2.92,2.92,0,0,0,2324.82,1245.16Z"/><path class="cls-2" d="M2268.81,1300.63h0l5.07-13.69,1.46-3.93,8.71-23.55a9.53,9.53,0,0,0-5.41-12.31l-13.28-4.92a3.13,3.13,0,0,0-4,1.92l-5.07,13.69-2.88,7.78C2248.17,1279.8,2255.1,1295.55,2268.81,1300.63Z"/><path class="cls-1" d="M2294.55,977.86l-13.75,12.51a20.32,20.32,0,0,0-1,28.63l45.87,50.44h0c19-17.26,16.81-44.29-.83-63.68l-25.1-27.6A3.65,3.65,0,0,0,2294.55,977.86Z"/><path class="cls-2" d="M2323.38,1071.67h0l-12.21-13.42-3.5-3.85-21-23.08a11.91,11.91,0,0,0-16.77-1l-13.16,12a3.91,3.91,0,0,0-.2,5.53l12.2,13.42,6.94,7.63C2288.32,1082.78,2309.79,1084,2323.38,1071.67Z"/><path class="cls-1" d="M2335.43,758.77l-11.25-2.59c-6.68-1.54-13.46,2.94-15.07,9.94l-9.75,42.39h0c15.53,3.58,28.64-7.45,32.39-23.75l5.33-23.2A2.29,2.29,0,0,0,2335.43,758.77Z"/><path class="cls-2" d="M2297.42,808.15h0l2.59-11.27.75-3.24,4.46-19.4a7.51,7.51,0,0,0-5.39-9.11l-10.77-2.47a2.46,2.46,0,0,0-2.91,1.91l-2.6,11.28-1.47,6.42C2279.39,793.94,2286.29,805.59,2297.42,808.15Z"/><path class="cls-1" d="M2272.26,502l-7.82,17.89a21.34,21.34,0,0,0,11.25,27.9l65.5,28.62h0c10.79-24.69-2.84-49.67-28-60.67l-35.84-15.67A3.83,3.83,0,0,0,2272.26,502Z"/><path class="cls-2" d="M2340,579.53h0l-17.43-7.62-5-2.18-30-13.1a12.5,12.5,0,0,0-16.48,6.27L2263.61,580a4.09,4.09,0,0,0,2.17,5.38l17.43,7.62,9.91,4.33C2311.17,605.24,2332.26,597.22,2340,579.53Z"/><path class="cls-1" d="M2349.79,346l-6.47-14.51c-3.84-8.59-14.23-12.39-23.09-8.44L2266.64,347h0c8.94,20,31.58,25.42,52.18,16.22l29.33-13.1A3.12,3.12,0,0,0,2349.79,346Z"/><path class="cls-2" d="M2265.43,344.57h0l14.26-6.37,4.1-1.82,24.52-10.95a10.23,10.23,0,0,0,5.35-13.39l-6.2-13.88a3.36,3.36,0,0,0-4.45-1.63l-14.26,6.37-8.11,3.62C2265.88,313.11,2259,330.24,2265.43,344.57Z"/><path class="cls-1" d="M2311.15,56.75l-11.85,9.87c-7,5.84-7.84,16.56-1.81,23.81L2334,134.3h0c16.36-13.61,15.45-36.21,1.41-53.08l-20-24A3,3,0,0,0,2311.15,56.75Z"/><path class="cls-2" d="M2332,136.06h0l-9.71-11.67-2.79-3.35L2302.84,101a10,10,0,0,0-13.93-1.5l-11.34,9.44a3.27,3.27,0,0,0-.35,4.6l9.71,11.67,5.52,6.64C2302.51,143.9,2320.33,145.81,2332,136.06Z"/><path class="cls-1" d="M2580.83,296l19.7-8a23.17,23.17,0,0,0,12.54-30.17l-29-71.89h0c-27.2,11-35.65,40.68-24.5,68.33l15.88,39.34A4.14,4.14,0,0,0,2580.83,296Z"/><path class="cls-2" d="M2587.37,184.47h0l7.71,19.13,2.22,5.49,13.27,32.9a13.6,13.6,0,0,0,17.57,7.64L2647,242a4.46,4.46,0,0,0,2.42-5.82l-7.72-19.13-4.39-10.87C2629.33,186.38,2606.85,176.61,2587.37,184.47Z"/><path class="cls-1" d="M2551.33,508.28l17.85-2.94a19.81,19.81,0,0,0,16-22.88l-10.8-65.57h0c-24.63,4.06-37.17,27.31-33,52.53l5.91,35.88A3.57,3.57,0,0,0,2551.33,508.28Z"/><path class="cls-2" d="M2577.42,416.26h0l2.87,17.45.83,5,4.94,30a11.61,11.61,0,0,0,13.19,9.7l17.09-2.82a3.81,3.81,0,0,0,3.09-4.41l-2.87-17.45-1.64-9.92C2612,425.76,2595.07,413.36,2577.42,416.26Z"/><path class="cls-1" d="M2506.27,764.54l30.57-4.62a33.52,33.52,0,0,0,28-38.09l-16.66-110.17h0c-42.19,6.38-64.23,45.17-57.82,87.53l9.12,60.29A6,6,0,0,0,2506.27,764.54Z"/><path class="cls-2" d="M2553.32,610.65h0l4.44,29.32,1.27,8.41,7.62,50.42a19.67,19.67,0,0,0,22.27,16.49l29.26-4.43a6.45,6.45,0,0,0,5.4-7.35l-4.43-29.32-2.52-16.66C2612,627.18,2583.55,606.08,2553.32,610.65Z"/><path class="cls-1" d="M2591,1018.13l19.22-22.42a32,32,0,0,0-3.59-45l-80.88-69.33h0c-26.52,30.93-18.22,72.75,12.89,99.41l44.26,38A5.75,5.75,0,0,0,2591,1018.13Z"/><path class="cls-2" d="M2528.86,877.41h0l21.52,18.45,6.18,5.29,37,31.73a18.77,18.77,0,0,0,26.4-2l18.4-21.45a6.18,6.18,0,0,0-.7-8.69l-21.52-18.45-12.23-10.49C2581.63,852.74,2547.86,855.25,2528.86,877.41Z"/><path class="cls-1" d="M2567.78,1183.26l11.19-10.89c6.63-6.46,6.61-17.34,0-24.18l-40.29-41.37h0c-15.44,15-12.74,37.77,2.75,53.68l22,22.64A3.07,3.07,0,0,0,2567.78,1183.26Z"/><path class="cls-2" d="M2540.46,1104.88h0l10.72,11,3.07,3.16,18.44,18.93a10.06,10.06,0,0,0,14.17.41l10.71-10.43a3.31,3.31,0,0,0,0-4.67l-10.72-11-6.1-6.26C2569.64,1094.63,2551.51,1094.11,2540.46,1104.88Z"/><path class="cls-1" d="M2585.73,1396.49l9.29-1.44c5.51-.85,9.27-6.35,8.36-12.23l-5.5-35.53h0c-12.82,2-19.37,14.45-17.26,28.11l3,19.45A1.88,1.88,0,0,0,2585.73,1396.49Z"/><path class="cls-2" d="M2599.45,1347h0l1.47,9.46.42,2.71,2.51,16.26a6.18,6.18,0,0,0,6.84,5.36l8.89-1.38a2,2,0,0,0,1.62-2.36l-1.47-9.46-.83-5.37C2617.38,1352.4,2608.63,1345.55,2599.45,1347Z"/><path class="cls-1" d="M2519.8,1657.32l18.07-1.77a19.88,19.88,0,0,0,17.53-21.86l-6.52-66.35h0c-24.94,2.45-39,24.91-36.5,50.43l3.57,36.31A3.56,3.56,0,0,0,2519.8,1657.32Z"/><path class="cls-2" d="M2552,1566.91h0l1.73,17.65.5,5.07,3,30.37a11.66,11.66,0,0,0,12.58,10.56l17.29-1.7a3.83,3.83,0,0,0,3.39-4.21l-1.74-17.66-1-10C2585.9,1578.67,2569.81,1565.15,2552,1566.91Z"/><path class="cls-1" d="M2841.48,1384.54l-31.4,3.32a34.2,34.2,0,0,0-30.25,37.56l12,113.07h0c43.32-4.59,67.56-43.13,63-86.61l-6.56-61.88A6.12,6.12,0,0,0,2841.48,1384.54Z"/><path class="cls-2" d="M2786.47,1539.27h0l-3.18-30.08-.92-8.64-5.48-51.74a20,20,0,0,0-22-17.81l-30,3.18a6.58,6.58,0,0,0-5.84,7.25l3.19,30.08,1.81,17.1C2727.34,1519.76,2755.44,1542.56,2786.47,1539.27Z"/><path class="cls-1" d="M2770,1166.84l-17.09,23.27a31.31,31.31,0,0,0,6.81,43.62l84,61.69h0c23.58-32.1,12.4-72.27-19.9-96l-46-33.77A5.61,5.61,0,0,0,2770,1166.84Z"/><path class="cls-2" d="M2841,1299.51h0l-22.35-16.41-6.41-4.72-38.44-28.23a18.36,18.36,0,0,0-25.6,3.84l-16.36,22.27a6,6,0,0,0,1.32,8.42l22.35,16.41,12.7,9.34C2791.31,1327.42,2824.07,1322.51,2841,1299.51Z"/><path class="cls-1" d="M2869.34,1010.25l-10.18-13.11c-6-7.78-17.52-9.07-25.51-2.86l-48.37,37.54h0c14,18.1,38.35,18,56.95,3.55l26.47-20.54A3.28,3.28,0,0,0,2869.34,1010.25Z"/><path class="cls-2" d="M2783.45,1029.66h0l12.87-10,3.69-2.87,22.14-17.18a10.69,10.69,0,0,0,2.08-14.91l-9.75-12.55a3.49,3.49,0,0,0-4.92-.55l-12.87,10-7.31,5.68C2776.05,997.62,2773.39,1016.69,2783.45,1029.66Z"/><path class="cls-1" d="M2795.52,762.79l-5.83,5.23c-3.46,3.11-3.54,8.72-.18,12.47l20.37,22.71h0c8.06-7.23,6.86-19-1-27.77L2797.76,763A1.6,1.6,0,0,0,2795.52,762.79Z"/><path class="cls-2" d="M2808.92,804.14h0l-5.41-6-1.56-1.73L2792.63,786a5.2,5.2,0,0,0-7.28-.69l-5.59,5a1.71,1.71,0,0,0,0,2.41l5.42,6,3.08,3.43C2793.84,808.43,2803.15,809.31,2808.92,804.14Z"/><path class="cls-1" d="M2799.66,467.93l-27.78,19.93a37,37,0,0,0-8.42,51.48l71.62,99.82h0c38.33-27.5,40.57-76.69,13-115.07l-39.2-54.63A6.63,6.63,0,0,0,2799.66,467.93Z"/><path class="cls-2" d="M2830.48,642.75h0l-19.05-26.56-5.47-7.62-32.78-45.68a21.7,21.7,0,0,0-30.18-5L2716.42,577a7.12,7.12,0,0,0-1.63,9.93l19.06,26.56,10.83,15.1A61.68,61.68,0,0,0,2830.48,642.75Z"/><path class="cls-1" d="M2842.37,265.7l-30.82,15.24a37.22,37.22,0,0,0-16.77,49.72l54.78,110.75h0c42.53-21,52.79-69.48,31.73-112.07l-30-60.61A6.67,6.67,0,0,0,2842.37,265.7Z"/><path class="cls-2" d="M2844.41,444.22h0l-14.58-29.46-4.18-8.46-25.07-50.68a21.81,21.81,0,0,0-29.13-9.88L2742,360.33a7.16,7.16,0,0,0-3.24,9.59l14.58,29.47,8.28,16.76A62,62,0,0,0,2844.41,444.22Z"/><path class="cls-1" d="M2863.62,45.43l-21.74,1.8A23.76,23.76,0,0,0,2820.42,73l6.57,79.2h0c30-2.48,47.32-29,44.79-59.47l-3.59-43.34A4.26,4.26,0,0,0,2863.62,45.43Z"/><path class="cls-2" d="M2823.29,152.64h0l-1.75-21.08-.5-6-3-36.24a13.94,13.94,0,0,0-14.9-12.82l-20.81,1.73a4.57,4.57,0,0,0-4.14,5l1.75,21.08,1,12C2782.74,138,2801.8,154.42,2823.29,152.64Z"/><path class="cls-1" d="M3041.94,275.62l9.38.84c5.56.5,10.54-3.95,11.08-9.88l3.21-35.88h0c-12.94-1.16-22.32,9.38-23.56,23.18l-1.76,19.63A1.9,1.9,0,0,0,3041.94,275.62Z"/><path class="cls-2" d="M3067.22,230.77h0l-.86,9.55-.24,2.74-1.48,16.42a6.18,6.18,0,0,0,5.37,6.85l9,.81a2,2,0,0,0,2.13-1.91l.86-9.55.49-5.42C3083.35,240.37,3076.49,231.6,3067.22,230.77Z"/><path class="cls-1" d="M3036.61,502l13,.75c7.69.45,14.36-5.74,14.82-13.75l2.81-48.47h0c-17.89-1-30.34,13.54-31.42,32.18l-1.54,26.53A2.56,2.56,0,0,0,3036.61,502Z"/><path class="cls-2" d="M3069.43,440.56h0l-.75,12.89-.21,3.7-1.29,22.19a8.42,8.42,0,0,0,7.7,9l12.42.72a2.76,2.76,0,0,0,2.86-2.65l.75-12.9.42-7.33C3092.11,452.83,3082.25,441.3,3069.43,440.56Z"/><path class="cls-1" d="M3050.77,779.2l18.53-15.86A26.53,26.53,0,0,0,3072,726l-57.56-67.27h0c-25.58,21.88-24,57.2-1.87,83.07l31.5,36.82A4.76,4.76,0,0,0,3050.77,779.2Z"/><path class="cls-2" d="M3017.48,655.91h0l15.32,17.9,4.39,5.14,26.35,30.79a15.56,15.56,0,0,0,21.86,1.82l17.74-15.18a5.11,5.11,0,0,0,.52-7.2l-15.32-17.9-8.71-10.18C3063.78,642.57,3035.81,640.23,3017.48,655.91Z"/><path class="cls-1" d="M3049.78,967.13l12.64-17.29a23.35,23.35,0,0,0-5.3-32.49l-63-46.1h0c-17.44,23.85-8.9,53.77,15.34,71.5L3043.92,968A4.2,4.2,0,0,0,3049.78,967.13Z"/><path class="cls-2" d="M2996.13,868.21h0l16.77,12.27,4.81,3.52,28.84,21.1a13.7,13.7,0,0,0,19.1-2.81l12.1-16.54a4.5,4.5,0,0,0-1-6.27L3060,867.21l-9.54-7C3033.06,847.54,3008.63,851.12,2996.13,868.21Z"/><path class="cls-1" d="M2996.3,1175.85l31.39,10.1a35.71,35.71,0,0,0,44.76-23L3108.76,1050h0c-43.32-13.93-82.75,12.59-96.71,56l-19.87,61.79A6.4,6.4,0,0,0,2996.3,1175.85Z"/><path class="cls-2" d="M3114.18,1051.48h0l-9.66,30-2.77,8.62-16.62,51.68a20.93,20.93,0,0,0,13.45,26.27l30.05,9.66a6.86,6.86,0,0,0,8.63-4.44l9.67-30,5.49-17.08A59.52,59.52,0,0,0,3114.18,1051.48Z"/><path class="cls-1" d="M3013.51,1408.2l8.57-.23c5.09-.14,9.12-4.73,9-10.19l-.91-33.06h0c-11.83.33-19.19,10.94-18.84,23.65l.5,18.09A1.73,1.73,0,0,0,3013.51,1408.2Z"/><path class="cls-2" d="M3031.6,1364.62h0l.24,8.8.07,2.52.42,15.13a5.65,5.65,0,0,0,5.58,5.67l8.2-.22a1.86,1.86,0,0,0,1.73-2l-.24-8.79-.14-5C3047.21,1371.65,3040.07,1364.39,3031.6,1364.62Z"/><path class="cls-1" d="M3075.87,1635.25l12.74-14.39a21,21,0,0,0-2.1-29.51l-52.68-46.64h0c-17.57,19.85-12.36,47.35,7.9,65.28l28.83,25.53A3.76,3.76,0,0,0,3075.87,1635.25Z"/><path class="cls-2" d="M3035.9,1542.17h0l14,12.41,4,3.56,24.1,21.34a12.31,12.31,0,0,0,17.33-.88l12.19-13.76a4.05,4.05,0,0,0-.4-5.7l-14-12.41-8-7C3070.66,1526.83,3048.48,1528,3035.9,1542.17Z"/><path class="cls-1" d="M3356.28,1668.26l-21.4-10.88a26.1,26.1,0,0,0-34.94,11.61l-39.52,77.7h0c29.52,15,61,.28,76.24-29.6l21.63-42.52A4.68,4.68,0,0,0,3356.28,1668.26Z"/><path class="cls-2" d="M3256.69,1745h0l10.52-20.67,3-5.93,18.09-35.56a15.31,15.31,0,0,0-6.57-20.57l-20.48-10.42a5,5,0,0,0-6.74,2.24L3244,1674.75l-6,11.75C3227.14,1707.91,3235.54,1734.22,3256.69,1745Z"/><path class="cls-1" d="M3392.22,1428.76l-33.28-10.67a37.81,37.81,0,0,0-47.39,24.42L3273.23,1562h0c45.92,14.72,87.66-13.37,102.4-59.33l21-65.41A6.78,6.78,0,0,0,3392.22,1428.76Z"/><path class="cls-2" d="M3267.48,1560.44h0l10.2-31.8,2.93-9.13,17.53-54.7a22.17,22.17,0,0,0-14.28-27.8L3252,1426.8a7.29,7.29,0,0,0-9.15,4.71l-10.19,31.81-5.8,18.08A63,63,0,0,0,3267.48,1560.44Z"/><path class="cls-1" d="M3347.49,1217.22l-26.64-9a30.53,30.53,0,0,0-38.5,19.22l-32.51,96.26h0c36.76,12.42,70.76-9.83,83.27-46.85l17.79-52.68A5.47,5.47,0,0,0,3347.49,1217.22Z"/><path class="cls-2" d="M3245.23,1322.35h0l8.65-25.62,2.48-7.35,14.88-44.05a17.89,17.89,0,0,0-11.11-22.65l-25.5-8.61a5.86,5.86,0,0,0-7.43,3.71l-8.65,25.61-4.92,14.56C3204.67,1284.48,3218.89,1313.46,3245.23,1322.35Z"/><path class="cls-1" d="M3277.3,962.93l-14.07,20.57a27.1,27.1,0,0,0,7.24,37.51l74.6,51h0c19.42-28.38,8.5-62.79-20.19-82.41l-40.82-27.93A4.86,4.86,0,0,0,3277.3,962.93Z"/><path class="cls-2" d="M3342.81,1075.65h0L3323,1062.07l-5.69-3.9-34.14-23.35a15.88,15.88,0,0,0-22,4l-13.47,19.69a5.22,5.22,0,0,0,1.4,7.24l19.85,13.58,11.28,7.72C3300.7,1101.12,3328.9,1096,3342.81,1075.65Z"/><path class="cls-1" d="M3310.09,794.36l-8.81-6.6c-5.22-3.91-12.86-2.61-17,2.89l-24.94,33.28h0c12.15,9.11,27.85,4.53,37.45-8.27l13.65-18.22A2.2,2.2,0,0,0,3310.09,794.36Z"/><path class="cls-2" d="M3257.79,822.87h0l6.64-8.85,1.91-2.55,11.41-15.23a7.18,7.18,0,0,0-1.17-10l-8.43-6.31a2.36,2.36,0,0,0-3.28.55l-6.63,8.86-3.78,5C3247.59,803.51,3249.09,816.35,3257.79,822.87Z"/><path class="cls-1" d="M3414.52,568.23l-21.88-28.14a38.56,38.56,0,0,0-53.95-6.74l-101,78.56h0c30.19,38.83,81.5,39.22,120.35,9l55.3-43A6.91,6.91,0,0,0,3414.52,568.23Z"/><path class="cls-2" d="M3233.73,607.27h0l26.88-20.91,7.72-6,46.23-36a22.6,22.6,0,0,0,4-31.63l-20.94-26.93a7.41,7.41,0,0,0-10.41-1.3l-26.89,20.9L3245,517.33A64.29,64.29,0,0,0,3233.73,607.27Z"/><path class="cls-1" d="M3287,306.9l-13.26,6.84c-7.86,4.05-10.86,14-6.67,22.14L3292.43,385h0c18.28-9.44,22.13-31,12.38-49.9l-13.88-26.89A2.93,2.93,0,0,0,3287,306.9Z"/><path class="cls-2" d="M3290.21,386.28h0l-6.74-13.07-1.94-3.76L3269.92,347a9.6,9.6,0,0,0-12.84-4.34l-12.69,6.55a3.16,3.16,0,0,0-1.29,4.27l6.75,13.08,3.84,7.43C3260.67,387.5,3277.11,393.05,3290.21,386.28Z"/><path class="cls-1" d="M3364.57.44,3330.63,13a39.16,39.16,0,0,0-23,50.19l45.24,121.82h0c46.83-17.39,62.88-67,45.49-113.81L3373.59,4.58A7,7,0,0,0,3364.57.44Z"/><path class="cls-2" d="M3347.16,187.44h0l-12-32.42-3.45-9.3L3311,90a23,23,0,0,0-29.43-13.5l-32.49,12.07a7.52,7.52,0,0,0-4.44,9.68l12,32.41,6.84,18.43A65.28,65.28,0,0,0,3347.16,187.44Z"/><path class="cls-1" d="M3547.16,251.08l4.42,5.58c2.62,3.31,7.73,3.67,11.36.8l21.93-17.37h0c-6.1-7.7-16.94-7.22-25.37-.54l-12,9.51A1.46,1.46,0,0,0,3547.16,251.08Z"/><path class="cls-2" d="M3585.67,241h0l-5.84,4.62-1.67,1.33-10,7.95a4.75,4.75,0,0,0-1.07,6.59l4.23,5.34a1.55,1.55,0,0,0,2.19.15l5.84-4.62,3.32-2.62C3588.67,255,3590,246.53,3585.67,241Z"/><path class="cls-1" d="M3497.62,480.41l15.68,9.27c9.29,5.5,21.5,2.21,27.12-7.3l34-57.56h0C3552.82,412,3528.13,421.87,3515,444l-18.62,31.5A3.57,3.57,0,0,0,3497.62,480.41Z"/><path class="cls-2" d="M3577.19,426.29h0l-9.05,15.32-2.6,4.39L3550,472.34a11.68,11.68,0,0,0,3.91,16l15,8.87a3.82,3.82,0,0,0,5.23-1.41l9.06-15.31,5.15-8.71C3597.7,455.93,3592.69,435.46,3577.19,426.29Z"/><path class="cls-1" d="M3556.53,713.25l7.91-2.8c4.69-1.65,7.06-7.14,5.28-12.19l-10.8-30.55h0c-10.91,3.85-14.56,16-10.41,27.71l5.91,16.72A1.69,1.69,0,0,0,3556.53,713.25Z"/><path class="cls-2" d="M3560.25,667.17h0l2.87,8.13.83,2.33,4.94,14a5.53,5.53,0,0,0,6.9,3.61l7.56-2.67a1.81,1.81,0,0,0,1-2.35l-2.87-8.13-1.63-4.63C3576.89,669,3568.06,664.41,3560.25,667.17Z"/><path class="cls-1" d="M3528.53,925.48l3.59,6.12c2.13,3.63,7.12,4.69,11.09,2.36l24.05-14.11h0c-5-8.44-15.72-9.46-25-4l-13.16,7.72A1.45,1.45,0,0,0,3528.53,925.48Z"/><path class="cls-2" d="M3567.92,920.87h0l-6.4,3.75-1.83,1.08-11,6.45a4.74,4.74,0,0,0-2,6.36l3.44,5.85a1.55,1.55,0,0,0,2.14.46l6.4-3.76,3.64-2.13C3569,935,3571.47,926.92,3567.92,920.87Z"/><path class="cls-1" d="M3498.13,1182.88l18.83.67a20.61,20.61,0,0,0,21-20l2.43-69h0c-26-.91-43.56,20.22-44.5,46.78l-1.32,37.79A3.68,3.68,0,0,0,3498.13,1182.88Z"/><path class="cls-2" d="M3543.65,1094.44h0l-.65,18.37-.18,5.28-1.11,31.6a12.07,12.07,0,0,0,11.48,12.58l18,.63a4,4,0,0,0,4.06-3.86l.64-18.38.37-10.44C3577,1111.2,3562.27,1095.1,3543.65,1094.44Z"/><path class="cls-1" d="M3503.3,1458l29.56-2.75a32.2,32.2,0,0,0,28.89-35l-9.92-106.63h0c-40.79,3.8-64,39.8-60.22,80.81l5.43,58.35A5.77,5.77,0,0,0,3503.3,1458Z"/><path class="cls-2" d="M3556.85,1312.89h0l2.64,28.37.76,8.14,4.54,48.8a18.87,18.87,0,0,0,20.43,17l28.3-2.63a6.2,6.2,0,0,0,5.57-6.76l-2.64-28.37-1.5-16.13C3612.22,1332,3586.07,1310.17,3556.85,1312.89Z"/><path class="cls-1" d="M3615,1681.77l13.81-23.61a29.68,29.68,0,0,0-10.76-40.45l-85.35-49.93h0c-19.06,32.57-4.52,69.34,28.3,88.54l46.71,27.33A5.33,5.33,0,0,0,3615,1681.77Z"/><path class="cls-2" d="M3534.92,1563.65h0l22.71,13.29,6.52,3.81,39.06,22.85a17.42,17.42,0,0,0,23.77-6.12l13.21-22.6a5.7,5.7,0,0,0-2.07-7.8l-22.71-13.29-12.92-7.55C3579,1532.48,3548.57,1540.32,3534.92,1563.65Z"/><path class="cls-1" d="M3829.22,1681.71l-9.32-2.3c-5.53-1.37-11.25,2.33-12.7,8.22l-8.8,35.62h0c12.87,3.18,24-6,27.34-19.67l4.82-19.5A1.93,1.93,0,0,0,3829.22,1681.71Z"/><path class="cls-2" d="M3796.79,1722.93h0l2.34-9.48.67-2.72,4-16.3a6.3,6.3,0,0,0-4.35-7.74l-8.92-2.2a2.05,2.05,0,0,0-2.45,1.59l-2.35,9.47-1.33,5.39C3782,1710.76,3787.57,1720.65,3796.79,1722.93Z"/><path class="cls-1" d="M3874.79,1412.48l-32.58-12.42a37.71,37.71,0,0,0-48.53,21.77l-44.62,117h0c45,17.14,88.06-8.6,105.22-53.61l24.41-64A6.76,6.76,0,0,0,3874.79,1412.48Z"/><path class="cls-2" d="M3743.42,1537h0l11.87-31.14,3.41-8.94,20.41-53.55a22.11,22.11,0,0,0-12.73-28.47L3735.2,1403a7.26,7.26,0,0,0-9.37,4.2L3714,1438.32l-6.75,17.7A62.89,62.89,0,0,0,3743.42,1537Z"/><path class="cls-1" d="M3837.06,1163.54l-33.9.56a36.69,36.69,0,0,0-35.94,37.23l2,121.87h0c46.78-.79,76.38-39.63,75.6-86.5l-1.12-66.69A6.58,6.58,0,0,0,3837.06,1163.54Z"/><path class="cls-2" d="M3763.48,1323.53h0l-.54-32.43-.16-9.3-.93-55.77a21.52,21.52,0,0,0-21.79-21.11l-32.45.54a7.07,7.07,0,0,0-6.94,7.19l.54,32.42.31,18.44A61.18,61.18,0,0,0,3763.48,1323.53Z"/><path class="cls-1" d="M3798.32,997.05l-8,4.68c-4.75,2.77-6.22,9.19-3.26,14.26l17.93,30.69h0c11.05-6.46,12.56-20.29,5.67-32.09l-9.81-16.79A1.86,1.86,0,0,0,3798.32,997.05Z"/><path class="cls-2" d="M3803.65,1047.54h0l-4.77-8.17-1.37-2.34-8.2-14a6.09,6.09,0,0,0-8.23-2.45l-7.66,4.48a2,2,0,0,0-.63,2.75l4.77,8.17,2.71,4.64C3785.21,1049,3795.73,1052.16,3803.65,1047.54Z"/><path class="cls-1" d="M3793.49,714.89,3778.93,737a28.78,28.78,0,0,0,8.39,39.71l80.17,52.69h0c20.08-30.56,7.85-66.9-23-87.16l-43.87-28.83A5.15,5.15,0,0,0,3793.49,714.89Z"/><path class="cls-2" d="M3865.16,833.32h0l-21.33-14-6.12-4L3801,791.17a16.87,16.87,0,0,0-23.32,4.72l-13.94,21.2a5.55,5.55,0,0,0,1.62,7.66l21.33,14,12.13,8C3820.92,861.25,3850.77,855.22,3865.16,833.32Z"/><path class="cls-1" d="M3810.68,594.34l-2.78-4.79c-1.65-2.84-5.63-3.65-8.83-1.79L3779.65,599h0c3.84,6.61,12.43,7.35,19.9,3l10.62-6.17A1.15,1.15,0,0,0,3810.68,594.34Z"/><path class="cls-2" d="M3779.14,598.23h0l5.17-3,1.48-.86,8.88-5.16a3.75,3.75,0,0,0,1.66-5l-2.66-4.59a1.23,1.23,0,0,0-1.7-.35l-5.17,3-2.94,1.7C3778.52,587.08,3776.39,593.49,3779.14,598.23Z"/><path class="cls-1" d="M3785.65,321.16l-8.07,6.86c-4.79,4.08-5.19,11.55-.89,16.61l26,30.62h0c11.14-9.48,10.16-25.24.15-37l-14.24-16.75A2.12,2.12,0,0,0,3785.65,321.16Z"/><path class="cls-2" d="M3801.39,376.48h0l-6.93-8.15-2-2.34-11.91-14a6.91,6.91,0,0,0-9.69-1.05l-7.73,6.57a2.27,2.27,0,0,0-.17,3.21l6.92,8.14,3.94,4.63C3781,381.92,3793.4,383.27,3801.39,376.48Z"/><path class="cls-1" d="M3828.77,38.63l-22.68,8.83a26.47,26.47,0,0,0-14.83,34.26l32,82.34h0c31.31-12.19,41.46-46,29.14-77.63L3834.9,41.36A4.74,4.74,0,0,0,3828.77,38.63Z"/><path class="cls-2" d="M3819.5,165.72h0L3811,143.81l-2.45-6.28-14.66-37.69a15.53,15.53,0,0,0-20-8.92l-21.72,8.45a5.11,5.11,0,0,0-2.86,6.61l8.53,21.91,4.85,12.46C3771.5,163,3797.07,174.45,3819.5,165.72Z"/></g></g></svg>